<?xml version="1.0" encoding="utf-8"?>
<!DOCTYPE svg PUBLIC "-//W3C//DTD SVG 1.0//EN" "http://www.w3.org/TR/2001/REC-SVG-20010904/DTD/svg10.dtd">
<svg version="1.0" xmlns="http://www.w3.org/2000/svg" width="1024px" height="1024px" viewBox="0 0 1024 1024" preserveAspectRatio="xMidYMid meet">
 <g fill="#f8f6f8">
  <path d="M0 512 l0 -512 512 0 512 0 0 512 0 512 -512 0 -512 0 0 -512z m780.6 442.1 c6.6 -3.1 12.5 -9.1 15.5 -15.7 2.3 -5.1 7.9 -28.1 7.9 -32.4 0 -1.7 -0.9 -4.8 -2 -7 -1.1 -2.2 -2 -5.4 -2 -7.2 l0 -3.3 11.3 -2.9 c26.5 -6.8 52 -16.7 68 -26.3 29.6 -17.9 43.5 -44.4 39.8 -75.5 -2.5 -20.1 -12.7 -50.6 -39.6 -118.4 -22.9 -57.6 -45 -107.8 -54.4 -123.6 -12.9 -21.9 -30.5 -36.6 -63.6 -53.3 -17.3 -8.8 -32.8 -15.5 -52.8 -23 l-12.7 -4.8 0 -3.3 c0 -2.2 1.7 -6.3 5.1 -12.1 21.4 -36 31.2 -73.1 27.9 -105.2 -5.2 -50.9 -27.3 -107.2 -63 -160.6 -42.5 -63.4 -102.7 -113.5 -147.8 -122.8 -6.1 -1.3 -8.1 -1.3 -13.5 -0.2 -45.4 9.6 -106.8 62 -150.1 128.3 -29.4 44.8 -49.1 92.2 -57.7 138.7 -3.3 17.5 -3.3 42.8 -0.1 57.9 4.5 20.9 12.4 40.2 25.6 62 4.6 7.7 6.6 12 6.6 14.3 0 3.8 1.4 3 -18.4 10.4 -56.8 20.9 -92.9 43.2 -107.8 66.4 -16.8 26 -63.9 138.6 -88.3 210.6 -8.4 24.9 -9.9 31.7 -9.9 46.4 -0.1 21.1 5.9 36.9 19.5 51 17.6 18.4 41.4 30 85.7 42.1 l14.2 3.9 0 3.8 c0 2.1 -0.9 5.5 -2 7.7 -1.1 2.2 -2 4.9 -2 6.1 0 3.5 6 28.1 8 32.6 2.6 5.9 9.3 12.8 15.4 15.7 l5.1 2.5 263 0.1 263 0 6.1 -2.9z m7.3 -527 c3.9 -2.8 6.2 -6.4 7.4 -12.1 l1.2 -5.3 28.8 -12.3 c19.8 -8.5 30.1 -12.4 32.6 -12.4 2.5 0 13.4 4 33.2 12.3 l29.4 12.3 0.7 4.6 c1.6 11.5 10.7 18.4 17.8 13.6 5.5 -3.7 7.8 -8 7.3 -13.1 -0.5 -4.2 -0.3 -4.6 4.6 -9.5 6.3 -6.3 6.8 -10.2 2.1 -15.5 -5.8 -6.6 -11.6 -7 -17.1 -1.1 -3.7 4 -8 3.2 -27.4 -4.8 l-17.5 -7.2 0 -3.6 0 -3.5 17.3 -7.3 c19.5 -8.2 22.7 -8.7 27 -4.3 4.6 4.7 7.9 5.6 12.4 3.5 4.3 -2.2 8.3 -7.5 8.3 -11.2 0 -3.2 -3.4 -8.3 -7.2 -10.8 -2.6 -1.7 -2.8 -2.4 -2.6 -7.5 0.2 -4.3 -0.3 -6.2 -2 -8.6 -2.7 -3.8 -8.4 -6.7 -11.5 -5.7 -6.4 2 -11.6 9.2 -11.7 16.2 0 1.7 -0.4 3.2 -0.9 3.2 -0.6 0 -13.7 5.4 -29.2 12 -20.9 8.9 -29.3 12 -32.4 12 -3.1 0 -11.8 -3.2 -33.6 -12.4 l-29.4 -12.3 -0.5 -4.4 c-0.8 -6 -3.6 -10.4 -8.5 -13 -4 -2.1 -4.2 -2.1 -7.8 -0.4 -5.7 2.7 -8 6.6 -7.9 13.4 0.2 5.3 0 5.7 -3.1 7.6 -1.7 1.1 -4.2 3.9 -5.5 6.2 -1.9 3.4 -2.1 4.6 -1.2 6.9 1.4 3.7 5.5 7.9 9 9.4 3.3 1.4 8.2 -0.5 12.1 -4.6 3.7 -3.9 7.7 -3.2 27 5 l17.4 7.3 0.3 3.5 c0.3 4 2 3 -21 12.4 -17.3 7 -20.7 7.7 -23.1 4 -2.2 -3.2 -8.1 -5.9 -11.6 -5.1 -3.5 0.7 -8.6 5.6 -9.9 9.4 -1.4 4 1.4 9.9 6.2 13.1 3.6 2.4 3.7 2.7 3.3 7.3 -0.5 5.6 1.7 9.7 7.2 13.4 3.7 2.5 5.9 2.4 10 -0.6z m-703.6 -41.9 c2.2 -2 29.1 -37.1 41.1 -53.6 6.7 -9.3 8.6 -12.7 8.6 -15.3 0 -2.5 1.5 -5.2 6.2 -11.3 7.5 -9.5 8.2 -9.7 20.3 -4.6 15 6.4 30.3 8.1 45.3 5 27.9 -5.7 52.3 -26.4 63 -53.4 6 -14.9 7.4 -28.2 4.7 -42.9 -6.1 -31.9 -30.4 -57.9 -63 -67.3 -10.6 -3 -28.8 -3.2 -38.5 -0.4 -30.7 8.9 -53.7 31.8 -62.6 62.6 -2.8 9.7 -2.6 27.9 0.4 38.5 3.2 11.1 9.1 22.8 15.6 31.3 7.3 9.2 7.3 11.2 0.4 20.3 -2.9 3.8 -6 6.9 -6.9 6.9 -5.4 0 -8.1 2.7 -34 33.2 -14.5 17.1 -27.1 32.2 -28.1 33.6 -2.7 4.1 -0.9 6.7 11 16.3 l7.3 5.9 3.7 -1.5 c2 -0.9 4.5 -2.3 5.5 -3.3z m766.5 -66.4 c0.7 -0.7 1.2 -3.4 1.2 -6 l0 -4.8 6 0 6 0 0 4.2 c0 4.7 2.2 7.8 5.5 7.8 3.2 0 4.5 -2 5.2 -7.9 l0.6 -5.1 5.3 0 5.4 0 0 4.9 c0 6.3 1.7 7.8 6 5.6 4.5 -2.3 6.6 -6.6 8 -15.8 2.1 -14.6 4.3 -17.2 17.5 -21.2 15.6 -4.8 21.5 -11.8 19.3 -23 -1.6 -8.7 -0.9 -20.5 1.7 -28.1 4.1 -12 5.9 -25.1 4.6 -33.8 -2.7 -18.2 -11.6 -34.4 -26.4 -48.2 -15.4 -14.3 -31.9 -21.1 -53.5 -22.1 -36.9 -1.7 -67 16 -82.7 48.9 -7.7 16 -8.5 33.8 -2.5 52.3 3.2 9.8 3.2 10.3 2.6 22 -1 16.6 -1 17.1 1.6 21.8 2.6 4.8 9.2 8.6 18.5 10.7 6.3 1.4 12.7 6.4 13.8 10.8 0.4 1.5 1.3 6.4 2 10.8 1.5 9.1 3.4 12.8 7.7 15 4 2.1 5.8 0.5 5.8 -5.2 l0 -4.4 6 0 6 0 0 3.8 c0 6.5 5.2 10.6 8.8 7z"/>
  <path d="M248.5 942.6 c-3.3 -1.4 -8 -6.4 -8.9 -9.3 -1.7 -5.8 -5.6 -23.9 -5.6 -26.4 l0 -2.9 278 0 278 0 0 2.9 c0 5.2 -5.1 24.5 -7.5 28.8 -1.6 2.7 -3.9 4.8 -6.8 6.2 l-4.3 2.1 -260 0 c-213.8 -0.1 -260.4 -0.3 -262.9 -1.4z"/>
  <path d="M263.4 890.6 c-9.1 -2.9 -17.9 -11.6 -21.1 -20.8 -1.1 -3.2 -3 -22.4 -8.9 -88.3 l-0.6 -7.1 -9.6 -3.2 c-19.8 -6.8 -43.4 -16.6 -46.3 -19.3 -2.6 -2.5 -2.9 -3.3 -2.9 -9.3 0 -7.1 1.4 -9.7 6.6 -11.6 6.5 -2.5 13.7 -1 34.7 7.2 7.1 2.7 13.1 4.8 13.3 4.5 0.3 -0.3 -2.4 -37.3 -6.1 -82.4 -3.6 -45 -6.9 -85.7 -7.2 -90.4 -0.6 -9.1 0.6 -16.7 3.7 -22.9 2.5 -4.8 9.5 -11.6 15 -14.3 l4.5 -2.2 273.5 0 273.5 0 4.6 2.1 c9.7 4.5 17.5 15.7 18.6 26.6 0.4 5 -1.7 31.7 -10.8 136.7 -2.2 25.5 -3.8 46.5 -3.6 46.7 0.2 0.2 6.5 -1.9 14.1 -4.7 7.5 -2.7 16.5 -5.7 19.9 -6.5 13.5 -3.5 21.7 0.5 21.7 10.7 0 5.8 -2 9.9 -6 12.2 -3.6 2.2 -24.9 10.5 -40 15.7 -6.9 2.4 -12.6 4.4 -12.8 4.6 -0.2 0.1 -1.9 17.9 -3.7 39.5 -4.2 47.7 -5 54 -8 59.9 -2.7 5.3 -9.4 11.9 -15.7 15.2 l-4.3 2.3 -246 0.2 c-198.3 0.1 -246.8 -0.1 -250.1 -1.1z m486.4 -30.8 c3.2 -3.5 4 -8.7 6.8 -41.3 6.5 -78 11.6 -136.8 15.9 -183 7.1 -75.7 6.7 -69.2 3.7 -72.7 -1.4 -1.7 -15.2 -1.8 -263.7 -1.8 l-262.2 0 -2.3 2.5 -2.4 2.5 1.2 15.3 c0.7 8.3 2.6 29.8 4.3 47.7 5.8 63.3 9.9 110.2 14.3 164.5 2.5 30.3 4.9 56.8 5.2 58.9 0.4 2.4 1.8 5.1 3.4 6.8 l2.8 2.8 235.4 0 235.5 0 2.1 -2.2z"/>
  <path d="M499 824.4 c-18 -2.6 -28.6 -5.6 -40.5 -11.6 -28.6 -14.3 -50.2 -40.9 -58.1 -71.6 -3.2 -12.1 -4.3 -35.3 -2.5 -48.2 5.6 -37.7 28 -69.3 61.1 -86 16.6 -8.4 31 -11.5 53.5 -11.4 14.8 0 18.5 0.4 28.3 2.7 25.3 5.9 47.8 20.4 63.2 40.8 17.2 22.8 23.7 44.7 22.7 75.9 -0.7 20.5 -4.3 34.6 -13 51 -14 26.1 -41.3 48.1 -68.2 54.9 -13.8 3.5 -35.3 5.1 -46.5 3.5z m17.4 -39.8 c4.2 -1.7 8.5 -7.3 9.2 -11.8 0.7 -4.8 -3 -10.7 -8.7 -13.7 -5.6 -3 -8.4 -2.4 -13.9 2.5 -8 7.2 -6.5 16.3 3.5 22.5 3.6 2.3 5.5 2.4 9.9 0.5z m2.1 -51 c1.3 -1.3 2.7 -3.5 2.9 -4.8 0.6 -2.2 5.4 -71.4 5.8 -83.2 0.2 -5.3 0 -6.1 -2.5 -8.2 -2.6 -2.2 -3.7 -2.4 -12.8 -2.4 -9.3 0 -10.2 0.2 -12.4 2.5 -2 1.9 -2.5 3.4 -2.5 7.5 0 6.6 4.8 79.5 5.5 83.7 1.2 6.9 11 9.9 16 4.9z"/>
  <path d="M405.7 515.9 c-33.8 -28.1 -57.4 -56.6 -75.5 -91 -13.3 -25.1 -18 -40.6 -18.9 -62.4 -0.7 -17 0.8 -25.7 6.6 -38.1 5.9 -12.6 13.3 -22.6 26.6 -36 34.1 -34.4 81.3 -57.1 132.9 -63.9 15.2 -2 51.1 -2 66.7 -0.1 42.3 5.3 83.5 21.6 114.9 45.6 14 10.7 31.3 28.6 39.3 40.6 11.5 17.3 14.2 26.5 14.1 47.9 -0.1 17.3 -2.6 30.2 -9.1 46.5 -12.6 32.1 -28.7 55.4 -59.3 86.1 -10.7 10.8 -23.3 22.6 -27.8 26.3 l-8.4 6.6 -12.9 0 -12.9 0 0 -3.1 c0 -2.6 2.4 -5.6 16.4 -20.2 35.5 -37.2 51.3 -58 66 -86.7 9.7 -18.9 16.6 -40.9 16.6 -53 0.1 -22.7 -23.2 -52.4 -58.5 -74.5 -24.3 -15.2 -56.5 -26 -88 -29.5 -71.1 -7.8 -147.9 23.8 -181.6 74.8 -9.2 13.9 -12 25.7 -9.5 39.9 3.3 19.1 13.5 41 32.2 69.3 12.4 18.8 26.9 35.9 54.2 64.1 10.3 10.7 12.2 13.1 12.2 15.8 l0 3.1 -13.3 0 -13.4 0 -9.6 -8.1z"/>
  <path d="M425 401.9 c-13.2 -1.9 -25.3 -9.6 -30.1 -19.1 -2.6 -5.1 -5.6 -18 -7 -30.2 -0.9 -8.1 -1.6 -10.9 -3.7 -14 -2.1 -3.1 -2.7 -5.3 -3 -11 -0.5 -8.3 1.1 -15.2 3.7 -16.6 3.5 -1.8 19.6 -4 37.4 -5.1 37.1 -2.3 64.5 2.1 75 12 2.6 2.4 3.6 2.6 13.3 2.9 l10.5 0.4 6.7 -4.1 c9.7 -5.8 14.6 -7.7 24.7 -9.7 17.8 -3.4 69.4 -1.7 83.1 2.9 5.5 1.7 6.5 4.4 6.2 15.7 -0.3 8.4 -0.7 9.9 -3 13.2 -2 2.9 -2.8 5.5 -3.3 11 -2.8 31.3 -10.4 43.9 -30 50.1 -6.3 2 -9.1 2.2 -28 2.2 -19 0 -21.7 -0.2 -28.1 -2.2 -17.7 -5.6 -25.1 -15.8 -30.1 -41.1 -0.9 -4.6 -2.3 -9 -3 -9.8 -1.8 -1.7 -7.7 -1.8 -9 -0.1 -0.6 0.6 -2.2 6.5 -3.6 13 -3.2 14.4 -6.1 21.1 -12.3 27.7 -9.1 9.7 -20.8 13 -45.9 12.8 -8.2 0 -17.5 -0.4 -20.5 -0.9z m32.4 -24.4 c10.4 -1.9 14.2 -3.9 17.1 -9 2.7 -4.6 6.5 -18 6.5 -23 0 -5.7 -3.7 -9.7 -11.3 -12.3 -9.8 -3.2 -28.3 -4.7 -43.2 -3.4 -15.3 1.3 -15.9 1.9 -14.9 13.6 0.8 9.6 3.7 21.7 6.2 26 4.6 7.9 22 11.5 39.6 8.1z m132.7 0.2 c8.5 -1.7 12.8 -4.3 15.7 -9.4 2.5 -4.5 4.7 -14.6 5.7 -26.3 1 -10.4 0.5 -10.8 -16.1 -12.2 -22.3 -1.8 -44.4 1.8 -49.8 8.3 -3 3.5 -3.2 5.8 -1.2 16.2 1.7 8.7 3.9 14.3 6.8 17.4 5.6 6 24.2 8.8 38.9 6z"/>
  <path d="M175 286.5 c-28.9 -6.5 -49 -32.4 -49 -62.9 0.1 -30.5 16.4 -53.5 45 -63.2 4.4 -1.5 8.4 -1.9 20 -1.9 13.2 0.1 15.2 0.3 22.3 2.8 13.2 4.6 23.4 12.2 31.2 23.1 8 11.4 11.5 22.8 11.5 38.2 0 29.5 -16.2 52.8 -43.2 62.1 -9.3 3.2 -27.8 4.1 -37.8 1.8z"/>
  <path d="M840.6 283.9 c-4 -5.8 -1.2 -15.2 8.9 -29.4 4.4 -6.1 4.9 -6.5 8.5 -6.5 4.6 0 7.4 2.9 14.4 15.4 3.8 6.8 4.6 9 4.6 13.4 0 7.8 -2.1 9.5 -10.8 8.8 -8.1 -0.6 -8 -0.6 -16.8 0 -6.7 0.5 -7.3 0.4 -8.8 -1.7z"/>
  <path d="M804.1 257.8 c-13.7 -7.4 -17.5 -31.8 -6.7 -43.6 4.9 -5.5 9.1 -6.7 23.1 -6.7 12.4 0 13.2 0.1 17.7 2.7 7.1 4.2 8.8 7.8 8.8 18.5 0 7.6 -0.4 9.7 -2.6 14 -5.2 10.6 -14.8 16.4 -27.9 17.1 -7 0.3 -8.6 0.1 -12.4 -2z"/>
  <path d="M890.9 258.6 c-12.2 -4.3 -20.7 -14.9 -21.6 -27.1 -0.7 -8.4 1.1 -14.2 5.7 -18.6 5.2 -4.9 10.5 -6.2 23.7 -5.7 14.3 0.5 20.1 3.5 24.7 12.5 2.2 4.3 2.2 20.9 0.1 26.1 -2.2 5.1 -9.2 12 -13.5 13.2 -4.9 1.4 -14.8 1.2 -19.1 -0.4z"/>
 </g>
 <g fill="#ff3836">
  <path d="M506.5 960 l-262 -0.5 -4.7 -2.3 c-5.6 -2.8 -12.3 -9.8 -14.8 -15.5 -2.7 -6.2 -8 -29.7 -8 -35.6 0 -3.2 0.8 -6.7 2.2 -9.6 1.2 -2.4 2 -4.6 1.7 -4.8 -0.2 -0.2 -7.4 -2.3 -15.9 -4.7 -43.7 -12 -66.3 -23.2 -83.9 -41.5 -8.8 -9.2 -14.3 -19.1 -17.7 -32 -2.6 -9.7 -2.6 -33.7 0 -44.9 9.6 -41.8 76.3 -205.9 96.4 -237.1 11.4 -17.8 34.2 -34.5 69.2 -50.5 13.5 -6.2 40.8 -17.2 50.7 -20.4 2.9 -1 5.5 -2.1 5.8 -2.5 0.2 -0.5 -2.5 -5.7 -6.1 -11.7 -13.2 -21.8 -21.1 -41.1 -25.6 -62 -3.3 -15.5 -3.3 -46.1 0.1 -63.9 7 -37.9 21.1 -75.5 42 -113 40.6 -72.4 103.8 -133.9 155.2 -150.9 13.7 -4.6 19.4 -5.2 29.4 -3.1 45.9 9.5 105.7 59.1 148.5 123 37.5 56 60.3 116.2 63.6 168 2.1 32.6 -7.9 69.1 -28.5 103.9 -2.9 4.9 -5.1 9 -4.9 9.2 0.2 0.1 6.2 2.5 13.3 5.2 20.5 7.7 34.8 13.9 52 22.7 33.1 16.7 50.7 31.4 63.6 53.3 18.3 30.9 75.4 171.5 89.3 220 5.9 20.5 7 40.4 3.1 55.7 -3.5 13.7 -13.1 28.4 -25.2 38.6 -15.4 13.1 -44.4 25.9 -79.3 35 -6.9 1.7 -12.6 3.3 -12.8 3.5 -0.2 0.1 0.6 2.1 1.8 4.4 1.4 2.7 2.1 6.1 2.2 9.8 0 6.3 -5.1 29.1 -8.1 35.6 -4.5 9.9 -14.5 17.3 -25.1 18.5 -3 0.3 -123.4 0.4 -267.5 0.1z m266.2 -21.1 c5.6 -2.7 8.6 -7.9 11.3 -19.4 1.1 -5 2.3 -9.8 2.6 -10.7 0.5 -1.7 -13 -1.8 -274.6 -1.8 -261.6 0 -275.1 0.1 -274.6 1.8 0.3 0.9 1.3 4.9 2.1 8.7 2.8 12.5 3.5 14.4 6.2 17.6 5.3 6.3 -14.5 5.8 265.7 5.9 l257 0 4.3 -2.1z m-11.9 -52.7 c6.3 -3.3 13 -9.9 15.7 -15.2 3 -5.9 3.8 -12.2 8 -59.9 1.8 -21.6 3.5 -39.4 3.7 -39.5 0.2 -0.2 5.9 -2.2 12.8 -4.6 15.1 -5.2 36.4 -13.5 40 -15.7 3.2 -1.8 6 -6.2 6 -9.2 0 -1.1 -1.3 -3.5 -2.9 -5.3 -2.5 -2.8 -3.4 -3.2 -7.7 -3.1 -4.9 0.1 -20.3 5 -37.2 11.9 -4.7 1.8 -8.7 3.3 -8.8 3.1 -0.2 -0.1 1.3 -18 3.1 -39.7 11.7 -133.3 12.7 -146.9 11.1 -152.4 -2 -6.8 -6.7 -13.8 -11.9 -17.6 -8.8 -6.5 12.2 -6 -282.7 -5.8 l-268.5 0.3 -4.5 2.2 c-5.5 2.7 -12.5 9.5 -15 14.3 -4.2 8.3 -4.3 11.6 -1.5 44.6 5.7 69.5 12.4 153.8 12.1 154.1 -0.1 0.1 -7.7 -2.6 -16.7 -6.1 -27.2 -10.6 -30.8 -11.2 -36.3 -6.1 -3.7 3.4 -3.6 8.8 0.3 12.4 2.9 2.7 26.5 12.5 46.3 19.3 l9.6 3.2 0.6 7.1 c5.9 65.9 7.8 85.1 8.9 88.3 3.2 9.2 12 17.9 21.1 20.8 3.3 1 51.2 1.2 247.1 1.1 l243 -0.2 4.3 -2.3z m-333.9 -378 c-14.6 -15 -32.5 -34.8 -40.4 -44.7 -11.6 -14.4 -28.6 -41.8 -35.9 -57.9 -14.9 -32.7 -15.1 -55 -0.7 -76.8 25.1 -38 74.3 -65.8 131.2 -74.2 12.2 -1.8 42.4 -2.1 56.4 -0.6 47.3 5.2 90.1 24.7 119.8 54.7 14.4 14.5 21.8 26.1 25.2 39 7.7 29.6 -15 81.8 -56 128.8 -4.8 5.5 -16.1 17.8 -25.2 27.3 l-16.5 17.2 10 0 10 0 8.4 -6.6 c13.4 -10.7 46.2 -44.4 55.9 -57.4 10.5 -14 14.2 -19.8 21.3 -33.2 19.1 -36.1 24 -69.4 14 -94.2 -6.4 -15.9 -27.6 -40.7 -48.4 -56.6 -31.4 -24 -72.6 -40.3 -114.9 -45.6 -15.3 -1.9 -45.8 -1.8 -60.7 0.1 -27.6 3.7 -51.3 11 -77.1 23.8 -22.5 11.2 -38.7 22.8 -55.8 40.1 -18.3 18.4 -28.6 35.2 -32.1 52.3 -3.2 15.4 -0.1 38 8.1 57.8 16.6 40.6 45.5 78.3 85.2 111.4 l9.6 8.1 10.5 0 10.4 0 -12.3 -12.8z m38.5 -109.7 c10.2 -1.8 17.2 -5.3 23 -11.5 6.2 -6.6 9.1 -13.3 12.3 -27.7 1.4 -6.5 3 -12.4 3.6 -13 1.4 -1.8 13.1 -1.7 15 0.1 0.7 0.8 2.1 5.2 3 9.8 5 25.3 12.4 35.5 30.1 41.1 6.3 1.9 9.2 2.2 25.1 2.2 15.8 0 18.9 -0.3 25 -2.2 19.6 -6.2 27.2 -18.8 30 -50.1 0.5 -5.4 1.3 -8.1 3.3 -11 2 -2.8 2.7 -5.2 2.9 -10.2 0.5 -8.1 -1 -11.1 -6 -12.7 -13.3 -4.4 -60.1 -6.1 -77.2 -2.9 -10.1 2 -15 3.9 -24.7 9.7 l-6.7 4.1 -13.5 -0.4 c-13 -0.3 -13.6 -0.4 -16.3 -2.9 -10.3 -9.7 -36.5 -14.1 -70.7 -11.9 -16.6 1 -32.3 3.3 -35.7 5 -2.4 1.3 -4.2 8.3 -3.6 13.8 0.2 2.3 1.6 5.9 3 8 2 2.9 2.8 5.9 3.6 13.8 1.4 12.2 4.4 25.1 7 30.2 4.8 9.5 16.9 17.2 30.1 19.1 8.9 1.4 28.9 1.1 37.4 -0.4z"/>
  <path d="M271 862.2 c-1.6 -1.7 -3 -4.4 -3.4 -6.8 -0.3 -2.1 -2.6 -28.4 -5.1 -58.4 -5.1 -61.2 -10 -118.7 -11.5 -133 -3.1 -29.4 -8.8 -98.4 -8.3 -99.8 0.3 -0.9 1.5 -2.7 2.6 -3.9 l2 -2.3 265.2 0 c251.3 0 265.3 0.1 266.8 1.8 3.3 3.7 3.4 2.4 -4.3 84.2 -3.7 39.3 -9 100 -15.4 177.5 -2.8 32.6 -3.6 37.8 -6.8 41.3 l-2.1 2.2 -238.5 0 -238.4 0 -2.8 -2.8z m255 -41.3 c25.6 -3.1 46.6 -13.3 64.5 -31.3 20.9 -21 31.9 -45.7 33.2 -74.6 0.6 -15.6 -1.3 -28.9 -6 -42.3 -12.9 -36 -42.9 -62.8 -79.9 -71.4 -20.2 -4.7 -42.9 -3.6 -62.6 3.1 -33.6 11.5 -60.5 39.9 -70.6 74.7 -3.7 13 -5 23.6 -4.3 37.3 2 39.9 25.2 75.4 61.2 93.4 11.9 6 22.5 9 40.5 11.6 5.4 0.7 15.9 0.6 24 -0.5z"/>
  <path d="M503.5 787.1 c-12.6 -7.8 -12.2 -25 0.6 -31.7 7.3 -3.7 18.4 -0.3 22.7 7.1 4.9 8.6 1.1 21.5 -7.4 25.1 -4.8 2 -12.3 1.8 -15.9 -0.5z"/>
  <path d="M502.7 737 c-1.5 -1.2 -2.9 -3.5 -3.2 -5.3 -0.3 -1.8 -1.8 -23.2 -3.4 -47.6 -2.7 -39.4 -2.8 -44.7 -1.5 -47.2 0.8 -1.6 2.3 -3.3 3.3 -3.9 1.1 -0.5 7.5 -1 14.3 -1 13.4 0 16 0.8 17.9 5.7 0.8 2.3 -4.3 88.1 -5.7 94.1 -0.2 1.3 -1.6 3.5 -2.9 4.8 -2.1 2.1 -3.3 2.4 -9.3 2.4 -5.5 0 -7.5 -0.4 -9.5 -2z"/>
  <path d="M64.8 387.1 c-4 -3.2 -8.3 -7 -9.6 -8.4 -3.2 -3.4 -4 -9.8 -1.6 -13.4 1 -1.6 13.7 -16.8 28.2 -34 26 -30.6 28.7 -33.3 34.1 -33.3 0.9 0 4 -3.1 6.9 -7 l5.4 -6.9 -5.7 -7.2 c-6.6 -8.5 -12.5 -20.3 -15.7 -31.4 -3.1 -10.8 -3.3 -34.5 -0.4 -44.5 9 -30.9 31.8 -53.6 62.6 -62.6 10 -2.9 33.7 -2.7 44.5 0.4 38.8 11.2 64.6 44.9 64.5 84.1 -0.2 35.4 -21.6 67.4 -54.2 80.9 -20.4 8.5 -46 8.3 -66.3 -0.4 -4.3 -1.8 -8.2 -3 -8.6 -2.6 -7.9 9.2 -11.9 15.5 -11.9 18.5 0 3.6 -6.9 13.7 -31.2 45.6 -16.4 21.5 -18.8 24.2 -23.3 26.2 -6.9 3.2 -9.5 2.6 -17.7 -4z m145.1 -105.5 c29.8 -10.1 47.6 -39.9 42 -70.2 -4 -21.4 -20 -39.6 -41.6 -47.1 -6.7 -2.3 -9.5 -2.7 -19.3 -2.7 -12.8 -0.1 -17.4 1 -29.5 7.3 -19 9.8 -32.4 32.4 -32.5 54.7 -0.1 27.4 21.5 53.7 49 59.9 9.1 2.1 22.5 1.3 31.9 -1.9z"/>
 </g>
 <g fill="#206ecd">
  <path d="M775 430.8 c-5.6 -3.8 -8.3 -8.5 -7.8 -13.9 0.5 -4.3 0.3 -4.7 -3 -7 -3.8 -2.6 -7.1 -8.7 -7.2 -13.2 -0.1 -14 17.5 -21.2 27.5 -11.2 l3.2 3.2 8.4 -3.3 c19.7 -8 28 -11.7 27.2 -12.4 -0.4 -0.4 -8.5 -4 -18 -8 l-17.2 -7.3 -3.7 3.2 c-2 1.8 -4.7 3.7 -6.1 4.2 -13.4 5.1 -26.3 -10.2 -19.1 -22.6 1.3 -2.2 3.8 -4.9 5.5 -6 2.9 -1.8 3.1 -2.3 2.6 -6.1 -1.1 -8.3 4.9 -15.3 13.7 -16.2 8.8 -0.8 15.8 5.2 17 14.7 l0.5 4.4 29.4 12.3 c16.2 6.8 30 12.4 30.6 12.4 0.7 0 13.9 -5.4 29.4 -12 15.5 -6.6 28.6 -12 29.2 -12 0.5 0 0.9 -1.5 0.9 -3.2 0.1 -4.8 3.3 -11.2 7 -13.8 4.4 -3.1 11.6 -3.8 16.4 -1.5 5.6 2.7 8.1 6.9 8.1 13.7 0 4.9 0.3 5.8 2.6 7.4 3.7 2.5 6.7 7.3 7.4 11.9 0.5 3.1 0.1 5 -1.7 8.4 -3 5.8 -6.5 8.3 -12.6 8.9 -5.5 0.5 -9.1 -0.9 -13.5 -5.4 l-2.7 -2.7 -17.5 7.4 c-9.6 4.1 -17.5 7.6 -17.5 7.9 0 0.6 34.4 15 35.8 15 0.5 0 1.7 -0.9 2.8 -2.1 7.7 -8.6 22.2 -5.5 26.4 5.6 2.1 5.4 0.4 11 -4.8 16.3 -4.2 4.3 -4.6 5 -4.3 9.2 0.3 5.3 -2.5 10.1 -7.9 13.8 -2.8 1.9 -4.5 2.3 -8.5 2 -8.5 -0.7 -14 -6.3 -15.4 -15.6 l-0.6 -4.7 -29.8 -12.4 -29.8 -12.4 -29.2 12.5 -29.2 12.5 -1.2 5.3 c-2 9 -7.1 14 -15 14.7 -3.9 0.4 -5.5 0 -8.3 -1.9z"/>
  <path d="M430 380.6 c-7.8 -1.3 -12.8 -4.1 -15.2 -8.2 -2.9 -5 -5.6 -17.5 -6.4 -29.1 -0.9 -15.2 -1 -15.2 16.6 -16.6 17.2 -1.4 37.5 0.1 47.6 3.5 8.9 3 11.4 6.3 11.4 15.3 0 7.6 -3.2 20.4 -6.5 26 -1.4 2.5 -3.9 4.9 -6 5.9 -8.8 4.2 -27.9 5.7 -41.5 3.2z"/>
  <path d="M564.1 381 c-15 -2.2 -19.5 -6.9 -22.7 -23.7 -2.2 -11.9 -1.9 -18.5 1.2 -22.2 5.6 -6.7 28.4 -10.3 53.8 -8.4 17.9 1.4 18.6 1.8 18.6 10.6 0 3.3 -0.7 10.7 -1.5 16.6 -1.9 12.9 -5.3 20.6 -10.4 23.5 -6.9 4 -24.9 5.6 -39 3.6z"/>
  <path d="M844.3 323.3 c-3.2 -0.6 -5.3 -4.1 -5.3 -8.5 0 -3.4 -0.2 -3.7 -3 -3.6 -2.9 0.1 -3 0.3 -3 4.4 0 3.5 -0.5 4.7 -2.5 6 -2.4 1.5 -2.8 1.5 -7 0 -6.1 -2.4 -8.4 -6 -10 -15.9 -0.7 -4.5 -1.6 -9.4 -2 -10.9 -1.1 -4.4 -7.5 -9.4 -13.8 -10.8 -9.5 -2.2 -15.9 -5.9 -18.6 -11 -2.8 -4.9 -3 -9.1 -1.6 -24.5 0.7 -8.6 0.6 -9.5 -2.5 -19 -2.9 -8.7 -3.4 -11.7 -3.8 -23.2 -0.5 -15.6 1 -24.1 6.3 -35.1 12.7 -26.5 35.3 -43.6 63.8 -48.2 9.9 -1.6 34.3 -0.8 42.1 1.4 16.7 4.7 26.3 10.3 38.6 22.6 20.3 20.3 28.1 43.1 23.6 68.9 -0.9 5.2 -2.8 12.6 -4.1 16.6 -2.7 7.7 -3.1 14.1 -1.5 22.6 2.1 10.5 -0.7 18.8 -7.9 23.6 -1.8 1.2 -7 3.4 -11.6 4.8 -13.2 4 -15.3 6.6 -17.5 21 -1.4 9.6 -3 12.9 -7.3 15.5 -3.6 2.2 -9.7 2.6 -11.5 0.8 -0.7 -0.7 -1.2 -3.3 -1.2 -5.9 0 -4.2 -0.2 -4.6 -2.4 -4.6 -2.1 0 -2.4 0.5 -3 5 -0.7 6.4 -2.3 8 -7.9 8.1 -6.1 0.1 -8.7 -2.3 -8.7 -8.1 0 -4.1 -0.1 -4.3 -3 -4.3 -2.9 0 -3 0.1 -3 4.9 0 2.8 -0.6 5.3 -1.3 6 -1.7 1.3 -6.4 2.1 -9.4 1.4z m10.8 -43.2 l2.9 -2.9 2.9 2.9 c5 4.9 13.1 2.8 13.1 -3.3 0 -2.9 -8.3 -17.6 -12.6 -22.6 -3.9 -4.4 -3.7 -4.6 -11.8 7.7 -7.1 10.6 -8.5 15 -6.2 18.6 2.4 3.7 7.8 3.5 11.7 -0.4z m-28.8 -25.9 c10.5 -4.7 17.7 -15 17.7 -25.5 0 -7.5 -2.4 -11.7 -8.8 -15.5 -4.3 -2.5 -5.6 -2.7 -14.7 -2.7 -8.3 0 -10.7 0.4 -14 2.2 -12.7 6.8 -15.9 22.3 -7.1 35 4.5 6.5 10.5 9.6 17.3 9 2.8 -0.3 7.2 -1.4 9.6 -2.5z m80.7 1.8 c4.3 -1.2 11.3 -8.1 13.5 -13.2 2 -5 2 -16 -0.1 -20.1 -4.1 -8.2 -10.5 -11.8 -21.7 -12.5 -9.9 -0.6 -15.8 1.1 -20.7 5.7 -6.4 6 -7.4 14.5 -2.9 23.3 6.5 12.8 20.3 20 31.9 16.8z"/>
 </g>
</svg>