<?xml version="1.0" standalone="no"?>
<!DOCTYPE svg PUBLIC "-//W3C//DTD SVG 20010904//EN"
 "http://www.w3.org/TR/2001/REC-SVG-20010904/DTD/svg10.dtd">
<svg version="1.0" xmlns="http://www.w3.org/2000/svg"
 width="218.000000pt" height="139.000000pt" viewBox="0 0 218.000000 139.000000"
 preserveAspectRatio="xMidYMid meet">
<metadata>
Created by potrace 1.10, written by Peter Selinger 2001-2011
</metadata>
<g transform="translate(0.000000,139.000000) scale(0.100000,-0.100000)"
fill="#894d4d" stroke="none">
<path d="M776 955 c-19 -29 -29 -31 -49 -10 -8 8 -17 11 -21 8 -3 -4 -6 -1 -6
5 0 7 -8 12 -17 12 -15 0 -16 -2 -3 -10 11 -7 7 -9 -17 -7 -17 1 -29 6 -26 11
3 5 0 6 -8 4 -8 -3 -13 -11 -11 -17 1 -7 -2 -10 -8 -6 -16 10 -50 -14 -50 -35
0 -10 -4 -22 -10 -25 -14 -9 -13 -117 2 -152 6 -15 10 -31 10 -36 -1 -4 9 -12
23 -17 31 -12 33 -24 2 -18 -22 4 -22 4 -22 -112 0 -87 3 -117 12 -117 16 0
16 10 1 25 -10 10 -4 11 27 6 22 -4 52 -6 68 -6 19 1 27 -4 28 -16 0 -12 3
-10 10 7 7 18 12 21 23 12 11 -9 15 -9 18 0 2 7 14 13 26 14 11 1 19 -2 16 -7
-3 -4 -12 -8 -20 -8 -17 0 -19 -16 -2 -26 7 -5 8 -3 3 6 -6 10 -4 12 9 7 9 -4
15 -3 11 2 -3 5 34 8 87 6 56 -2 86 0 78 5 -8 5 -11 12 -7 16 10 10 38 -17 30
-30 -5 -8 -3 -8 8 0 8 6 23 14 33 18 16 5 17 4 6 -9 -13 -16 -12 -17 39 -19
16 0 27 3 24 7 -3 5 -17 6 -32 3 -19 -5 -22 -4 -11 3 9 5 41 10 70 11 80 1 91
0 85 -11 -4 -5 -1 -9 5 -9 7 0 10 6 7 13 -2 6 -13 11 -23 10 -16 -1 -17 0 -4
10 12 9 14 30 12 90 l-3 77 46 0 45 0 1 -67 c1 -78 7 -74 11 7 l3 55 48 3 47
3 0 -76 c0 -55 -4 -81 -15 -91 -8 -9 -15 -11 -15 -5 0 7 -28 10 -79 8 -44 -1
-77 -5 -74 -10 2 -4 9 -4 15 -1 7 5 9 1 5 -9 -9 -23 13 -34 28 -14 13 18 30
24 20 7 -3 -5 13 -3 35 5 36 13 42 13 46 0 5 -13 8 -13 21 0 16 17 33 20 33 6
0 -10 108 -6 118 4 4 5 -1 5 -10 2 -10 -3 -20 -2 -23 3 -4 6 -24 10 -46 10
l-39 0 0 79 0 79 49 4 c27 1 47 -1 44 -6 -3 -4 5 -5 17 -1 15 5 26 2 32 -6 5
-9 6 -4 2 14 -6 27 -5 27 41 27 42 0 47 -2 42 -20 -3 -13 0 -20 9 -20 8 0 13
6 11 13 -1 8 14 13 46 15 35 2 47 0 47 -11 0 -10 12 -13 53 -9 l53 4 11 -38
10 -39 2 35 c1 45 -8 57 -40 55 -14 -1 -26 4 -26 11 0 10 16 12 37 4 3 -1 9
-2 13 -1 4 1 10 -6 13 -14 4 -10 20 -15 50 -15 24 0 44 -2 44 -6 0 -28 -35
-148 -47 -159 -9 -10 -34 -15 -73 -15 -51 0 -58 3 -65 23 -4 13 -8 17 -12 10
-3 -8 -24 -13 -53 -13 -59 0 -76 21 -66 81 4 24 2 39 -4 39 -6 0 -10 -26 -10
-60 l0 -60 -45 0 -45 0 0 51 c0 43 -3 50 -16 45 -9 -3 -20 -6 -25 -6 -5 0 -9
-23 -9 -51 0 -31 4 -48 10 -44 14 9 52 -4 45 -16 -4 -5 1 -9 9 -9 9 0 16 5 16
10 0 6 5 10 11 10 6 0 9 -7 6 -15 -4 -8 -1 -17 6 -21 7 -4 9 -4 5 1 -4 4 -3
14 3 22 9 10 15 10 25 2 11 -9 14 -7 14 7 0 16 2 16 9 4 6 -8 8 -17 5 -21 -2
-4 1 -11 7 -15 8 -4 9 -3 5 4 -9 15 30 35 54 27 12 -4 17 -12 14 -23 -4 -10
-2 -13 3 -7 10 12 47 20 40 8 -3 -4 28 -8 68 -8 40 0 71 4 68 9 -9 15 20 26
36 13 12 -10 13 -9 3 10 -15 28 -15 36 0 27 7 -4 8 -3 4 5 -4 6 -3 18 3 25 6
8 11 27 11 42 -1 16 1 38 3 49 2 11 0 29 -6 39 -7 15 -6 22 7 31 18 14 21 41
5 51 -8 4 -7 9 2 15 11 7 10 9 -3 9 -10 0 -18 5 -18 11 0 5 4 8 9 5 5 -3 7 7
6 23 -3 36 37 60 63 39 10 -8 13 -9 9 -1 -4 6 -4 13 0 16 5 2 1 2 -7 0 -13 -3
-13 -1 1 9 16 14 22 71 5 61 -5 -4 -7 1 -3 10 4 11 2 14 -8 11 -10 -4 -13 0
-10 16 2 13 1 19 -3 16 -4 -4 -7 -13 -7 -19 0 -5 -6 -12 -14 -15 -9 -3 -11 0
-7 9 4 8 1 6 -7 -4 -12 -15 -16 -15 -26 -3 -7 8 -18 13 -26 10 -7 -3 -16 -1
-20 5 -3 6 -11 11 -16 11 -6 0 -7 -5 -3 -11 5 -8 1 -8 -14 0 -26 14 -35 14
-26 0 8 -14 -38 -8 -49 6 -6 6 -10 6 -14 -2 -2 -7 -17 -13 -33 -13 -16 0 -31
-6 -33 -12 -4 -10 -6 -10 -6 0 -1 6 -7 12 -15 12 -8 0 -17 6 -19 13 -4 9 -6 8
-6 -2 -1 -11 -4 -11 -18 0 -9 8 -14 9 -10 3 4 -7 -5 -11 -24 -12 -25 -1 -29 3
-25 16 5 15 5 15 -8 0 -7 -10 -20 -18 -28 -18 -8 0 -19 -5 -25 -11 -8 -8 -17
-8 -30 -1 -28 15 -135 23 -127 10 5 -7 -2 -9 -22 -4 -16 4 -38 7 -49 7 -11 0
-23 5 -27 12 -5 8 -8 6 -8 -6 0 -13 -6 -17 -25 -14 -13 1 -27 6 -30 9 -4 3
-19 3 -33 -1 -34 -9 -74 -3 -67 10 4 5 1 9 -4 9 -6 0 -11 -6 -11 -12 0 -9 -4
-8 -10 2 -8 12 -10 12 -10 1 0 -11 -5 -9 -22 5 -19 17 -21 17 -15 2 7 -21 3
-22 -26 -6 -21 11 -21 10 -7 -7 8 -10 11 -17 5 -14 -5 3 -22 11 -38 19 -21 10
-30 11 -39 2 -18 -18 -38 -15 -32 6 5 14 4 15 -5 2 -10 -13 -12 -13 -22 0 -9
12 -10 12 -6 -5 4 -19 -1 -20 -55 -17 -46 3 -58 7 -54 18 8 22 0 17 -18 -11z
m-63 -36 c12 -7 25 -17 29 -23 13 -19 9 -161 -4 -179 -28 -38 -118 -38 -145 0
-14 18 -18 160 -5 179 21 32 85 44 125 23z m185 -17 c3 -18 -1 -22 -22 -22
-21 0 -26 -5 -26 -26 0 -21 4 -25 20 -21 16 4 20 0 20 -19 0 -17 -6 -24 -20
-24 -17 0 -20 -7 -20 -50 l0 -50 -40 0 -40 0 0 118 0 118 63 -1 c56 -1 62 -3
65 -23z m140 0 c3 -18 -2 -22 -22 -22 -21 0 -26 -5 -26 -26 0 -21 4 -25 20
-21 16 4 20 0 20 -19 0 -17 -6 -24 -20 -24 -17 0 -20 -7 -20 -50 l0 -50 -40 0
-40 0 0 119 0 120 63 -3 c56 -2 62 -4 65 -24z m137 -2 c0 -20 -4 -24 -21 -22
-15 2 -23 -4 -27 -18 -6 -23 7 -35 28 -26 11 4 15 -2 15 -19 0 -19 -5 -25 -22
-25 -18 0 -23 -6 -23 -25 0 -21 5 -25 28 -25 22 0 27 -4 27 -25 0 -24 -2 -25
-65 -25 l-65 0 0 113 c0 63 2 116 5 118 2 3 30 5 62 4 55 0 58 -2 58 -25z
m102 -24 l18 -51 3 51 c3 49 4 51 32 52 l30 1 0 -120 0 -119 -34 0 c-32 0 -34
3 -49 53 l-15 52 -1 -52 c-1 -52 -2 -53 -31 -53 l-30 0 0 118 0 117 30 1 c27
2 31 -3 47 -50z m238 42 c18 -8 25 -19 25 -40 0 -25 -3 -28 -35 -28 -28 0 -35
4 -35 20 0 11 -4 20 -10 20 -26 0 -6 -38 30 -59 60 -34 80 -91 43 -123 -43
-36 -127 -26 -143 18 -17 44 -13 54 25 54 31 0 35 -3 35 -25 0 -16 6 -25 15
-25 27 0 16 39 -16 55 -69 36 -88 86 -49 125 23 23 75 26 115 8z m127 -108 l3
-120 -37 0 -38 0 0 120 0 120 34 0 35 0 3 -120z m92 88 c3 -17 6 -53 6 -81 0
-72 11 -52 18 35 l7 73 38 2 c20 1 37 -1 37 -5 0 -4 -7 -58 -17 -119 l-16
-113 -56 0 -56 0 -21 115 c-11 64 -19 117 -16 119 2 2 18 4 37 4 29 0 34 -4
39 -30z m244 3 c-2 -21 -8 -25 -25 -23 -19 3 -23 -1 -23 -24 0 -21 4 -25 20
-21 16 4 20 0 20 -19 0 -17 -6 -24 -20 -24 -15 0 -20 -7 -20 -25 0 -20 5 -25
25 -25 20 0 25 -5 25 -25 0 -24 -2 -25 -65 -25 l-65 0 0 118 0 118 65 0 c65 0
66 0 63 -25z m70 20 c21 -13 10 -46 -16 -49 -27 -4 -40 22 -22 43 14 17 20 18
38 6z m-29 -72 c-17 -11 -39 -12 -39 -1 0 4 12 8 27 9 19 1 22 -1 12 -8z
m-999 -168 c-12 -23 0 -34 20 -19 12 8 11 8 -5 3 -15 -5 -17 -3 -8 6 9 9 17 8
34 -4 20 -14 20 -16 3 -15 -10 0 -26 -2 -35 -6 -9 -4 -21 0 -29 9 -11 13 -10
18 6 30 25 19 27 19 14 -4z m-250 -21 c0 -41 9 -49 38 -34 49 26 141 14 165
-20 4 -6 6 -33 5 -60 -1 -36 2 -52 16 -61 10 -8 13 -16 7 -19 -5 -4 -15 3 -21
15 -9 15 -15 18 -23 10 -6 -6 -20 -11 -32 -12 -20 0 -20 0 0 -9 28 -12 18 -12
-51 1 -77 14 -94 30 -94 87 0 48 -26 102 -48 102 -11 0 -12 3 -2 14 15 19 40
10 40 -14z m534 -8 c-6 -8 -44 20 -39 28 3 5 14 2 24 -8 10 -9 17 -18 15 -20z
m-393 5 c-13 -13 -26 -3 -16 12 3 6 11 8 17 5 6 -4 6 -10 -1 -17z m34 3 c-3
-5 -2 -10 4 -10 5 0 13 4 16 10 4 6 14 2 26 -9 17 -16 31 -18 78 -14 33 3 66
1 78 -5 15 -8 24 -8 33 1 12 10 12 9 3 -3 -8 -10 -9 -21 -3 -30 16 -26 11 -30
-34 -30 -34 0 -46 4 -49 18 -3 9 -5 -5 -4 -33 0 -27 2 -40 4 -27 4 19 11 22
49 22 24 0 44 -5 44 -11 0 -43 -64 -75 -129 -64 -55 9 -73 33 -71 92 3 66 2
75 -12 70 -18 -6 -50 12 -43 24 4 5 8 9 11 9 3 0 2 -4 -1 -10z m-352 -17 c4
-4 31 -6 60 -4 66 3 107 -12 107 -39 0 -15 -7 -20 -27 -21 l-28 -1 28 -10 c31
-11 46 -50 27 -73 -33 -39 -172 -22 -178 23 -3 18 1 22 25 22 l28 0 -25 13
c-20 10 -25 20 -24 47 0 19 -5 38 -10 42 -8 5 -8 8 0 8 6 0 14 -3 17 -7z"/>
<path d="M656 883 c-3 -3 -6 -39 -6 -80 0 -58 3 -73 15 -73 12 0 15 15 15 74
0 69 -8 95 -24 79z"/>
<path d="M820 617 c-31 -16 -41 -85 -15 -111 22 -21 112 -22 143 0 32 22 27
34 -13 34 -28 0 -35 -4 -35 -20 0 -13 -7 -20 -20 -20 -16 0 -20 7 -20 30 0 29
1 30 48 30 55 0 62 4 55 30 -9 35 -95 51 -143 27z m80 -27 c0 -13 -7 -20 -20
-20 -13 0 -20 7 -20 20 0 13 7 20 20 20 13 0 20 -7 20 -20z m-62 -7 c9 -17 7
-62 -3 -72 -11 -11 -17 10 -6 23 9 11 7 15 -11 20 -22 6 -22 7 -5 20 14 11 15
15 5 19 -9 4 -9 6 -1 6 7 1 16 -7 21 -16z"/>
<path d="M870 530 c0 -11 5 -20 10 -20 6 0 10 9 10 20 0 11 -4 20 -10 20 -5 0
-10 -9 -10 -20z"/>
<path d="M1042 623 c-13 -3 -28 -15 -34 -28 -12 -27 -2 -99 13 -90 5 4 9 1 9
-4 0 -7 23 -11 56 -11 30 0 53 4 50 9 -3 5 2 8 11 7 10 0 19 7 21 17 3 13 -3
17 -27 17 -25 0 -31 -4 -31 -21 0 -14 -5 -19 -17 -17 -14 2 -19 15 -21 54 -3
48 -1 52 21 56 20 4 23 1 19 -14 -3 -15 2 -18 27 -18 41 0 41 25 0 39 -32 11
-55 12 -97 4z m12 -28 c-4 -8 -10 -15 -15 -15 -5 0 -9 -5 -9 -11 0 -5 5 -7 10
-4 6 3 10 2 10 -4 0 -18 -18 -21 -24 -4 -4 9 1 24 10 34 21 23 25 24 18 4z"/>
<path d="M620 621 c-37 -10 -32 -42 10 -63 19 -10 42 -16 51 -14 12 2 15 -3
11 -20 -5 -27 -29 -32 -38 -9 -7 16 -64 21 -64 5 0 -31 126 -43 155 -14 24 24
14 37 -42 57 -54 20 -82 58 -37 49 13 -2 24 -8 24 -13 0 -5 14 -9 30 -9 37 0
39 17 4 30 -28 11 -67 11 -104 1z"/>
<path d="M1549 963 c-8 -9 -8 -13 0 -13 6 0 11 5 11 11 0 5 4 8 9 4 5 -3 12
-2 15 3 9 14 -23 10 -35 -5z"/>
<path d="M223 931 c-24 -25 -25 -29 -20 -158 5 -131 2 -147 -28 -148 -5 0 -9
-11 -8 -23 2 -12 -2 -22 -7 -22 -6 0 -10 -6 -10 -12 0 -7 -8 -22 -16 -33 -16
-19 -16 -19 -10 5 l6 25 -11 -25 c-6 -14 -15 -33 -20 -42 -5 -10 -9 -23 -8
-30 0 -7 4 -4 9 7 8 18 9 18 9 2 1 -11 5 -15 13 -11 7 5 9 2 6 -7 -4 -11 8
-14 63 -15 38 0 63 3 56 8 -22 14 10 9 49 -7 32 -13 38 -13 57 0 12 8 28 15
37 15 10 -1 7 -5 -7 -13 -21 -11 -18 -12 25 -11 26 1 47 2 47 4 0 1 12 4 28 6
18 2 25 -1 21 -8 -4 -7 -2 -8 4 -4 6 4 8 14 5 23 -4 11 -3 14 5 9 7 -4 12 -2
12 4 0 6 -6 10 -12 9 -7 -1 -100 -1 -205 0 l-193 1 60 82 60 82 0 143 0 143
78 0 78 0 1 -141 1 -140 39 -56 c44 -65 121 -148 109 -118 -5 11 -12 35 -18
53 -5 17 -11 32 -15 32 -3 0 -2 -7 1 -16 5 -14 4 -15 -9 -4 -9 7 -14 19 -11
27 3 7 1 13 -4 13 -6 0 -10 9 -10 19 0 11 -5 23 -11 26 -6 4 -8 13 -5 21 3 8
0 11 -10 7 -13 -5 -13 -8 1 -23 8 -9 15 -20 15 -24 0 -5 -8 2 -18 14 -13 17
-19 39 -18 77 1 29 -3 53 -7 53 -4 0 -6 38 -4 85 5 108 -6 121 -108 122 -61 1
-71 -2 -92 -26z"/>
<path d="M305 881 c3 -12 0 -21 -10 -25 -18 -6 -20 -48 -4 -78 6 -12 13 -50
14 -84 3 -58 0 -67 -27 -101 l-30 -38 26 -3 c24 -3 38 -22 16 -22 -20 0 -9
-20 14 -26 32 -8 51 3 36 21 -13 15 -3 24 23 20 20 -4 24 34 5 53 -11 11 -15
64 -18 235 0 18 -5 27 -16 27 -11 0 -14 6 -9 20 5 14 2 20 -10 20 -11 0 -15
-6 -10 -19z m34 -238 c1 -18 -3 -33 -7 -33 -4 0 -8 33 -8 73 -1 61 0 66 7 32
4 -22 8 -55 8 -72z"/>
<path d="M1580 652 c0 -10 36 -9 46 1 4 4 -5 7 -19 7 -15 0 -27 -4 -27 -8z"/>
<path d="M1681 576 c-2 -78 4 -86 59 -85 19 0 29 3 23 6 -16 6 -18 113 -2 113
23 0 -18 27 -48 32 l-31 4 -1 -70z m33 42 c-5 -7 -2 -9 7 -6 11 4 13 -4 9 -46
l-5 -51 -4 45 -5 45 -6 -45 -7 -45 -1 58 c-1 34 2 57 9 57 5 0 7 -5 3 -12z"/>
<path d="M1463 622 l-33 -3 0 -65 0 -64 35 0 c35 0 35 0 35 45 0 35 -3 43 -15
39 -15 -6 -16 -29 -2 -51 4 -6 2 -15 -4 -19 -8 -5 -9 -3 -4 6 6 10 4 12 -9 7
-14 -6 -16 -3 -11 14 5 15 4 19 -4 15 -16 -10 -14 -1 9 36 11 18 20 28 20 22
0 -16 23 -24 49 -17 12 3 21 13 21 24 0 23 -13 24 -34 4 -11 -11 -15 -12 -18
-2 -2 7 -16 11 -35 9z"/>
<path d="M1804 598 c5 -15 14 -24 18 -22 5 3 6 9 3 14 -3 5 -1 11 5 15 5 3 10
2 10 -4 0 -5 3 -18 6 -28 5 -15 4 -15 -5 -3 -16 23 -24 -10 -11 -44 14 -37 13
-44 -7 -49 -10 -3 9 -5 42 -4 59 2 60 2 71 37 6 19 14 52 18 73 7 36 6 37 -22
37 -28 0 -30 -3 -37 -52 -5 -29 -9 -57 -9 -62 -1 -5 -7 -11 -13 -13 -15 -5
-18 24 -4 29 6 2 5 22 -1 50 -10 42 -14 47 -43 50 -31 3 -31 3 -21 -24z"/>
<path d="M1212 558 l3 -63 45 -3 c36 -3 43 -1 33 9 -7 7 -13 37 -13 66 l0 53
-35 0 -36 0 3 -62z m46 6 c4 -44 -25 -42 -30 3 -3 26 -1 33 11 31 10 -2 17
-16 19 -34z"/>
<path d="M1320 565 c0 -30 0 -58 0 -62 0 -5 15 -9 35 -11 l35 -3 0 65 0 66
-35 0 -35 0 0 -55z m48 -2 c2 -20 -2 -32 -11 -36 -11 -4 -16 4 -19 32 -2 30 0
38 12 36 9 -1 16 -14 18 -32z"/>
<path d="M1580 555 c0 -63 1 -65 25 -65 24 0 25 2 25 65 0 63 -1 65 -25 65
-24 0 -25 -2 -25 -65z"/>
<path d="M1773 603 c-8 -3 -13 -23 -13 -50 0 -40 2 -45 20 -40 11 3 18 0 17
-6 -1 -6 6 -13 16 -15 16 -3 16 -1 -1 45 -11 26 -21 53 -23 59 -2 6 -10 9 -16
7z"/>
</g>
</svg>
