<?xml version="1.0" standalone="no"?>
<!DOCTYPE svg PUBLIC "-//W3C//DTD SVG 20010904//EN"
 "http://www.w3.org/TR/2001/REC-SVG-20010904/DTD/svg10.dtd">
<svg version="1.0" xmlns="http://www.w3.org/2000/svg"
 width="300.000000pt" height="200.000000pt" viewBox="0 0 300.000000 200.000000"
 preserveAspectRatio="xMidYMid meet">
<metadata>
Created by potrace 1.10, written by Peter Selinger 2001-2011
</metadata>
<g transform="translate(0.000000,200.000000) scale(0.100000,-0.100000)"
fill="#7e4e6f" stroke="none">
<path d="M274 1782 c-61 -6 -69 -27 -69 -188 0 -135 1 -145 22 -166 22 -22 22
-22 4 -43 -23 -24 -24 -29 -22 -126 1 -107 8 -113 116 -115 122 -2 128 5 127
146 -1 41 0 43 14 26 11 -16 20 -89 16 -127 -1 -4 10 -16 23 -29 17 -16 29
-20 47 -14 12 4 28 6 33 5 6 -2 60 -5 122 -8 104 -4 114 -2 133 17 l22 22 22
-21 c12 -12 33 -21 47 -21 13 1 92 3 174 5 83 2 159 5 170 5 11 0 85 -2 165
-4 123 -4 147 -2 162 11 16 14 20 14 36 1 12 -10 36 -14 77 -13 33 2 77 -1 97
-5 21 -4 41 -3 46 2 5 5 26 6 46 3 28 -6 36 -12 36 -29 0 -12 -7 -31 -15 -42
-8 -10 -15 -29 -15 -40 0 -12 -6 -27 -14 -33 -7 -6 -17 -26 -21 -44 -4 -17 -9
-34 -10 -37 -1 -3 -5 -18 -10 -35 -4 -16 -11 -34 -15 -40 -24 -33 -61 -251
-62 -362 0 -67 4 -90 23 -122 25 -44 69 -71 119 -71 34 0 96 32 116 60 7 8 24
29 39 45 72 82 117 165 170 316 50 143 66 217 74 334 l6 100 33 -51 c59 -93
175 -190 312 -261 46 -24 55 -33 61 -63 14 -66 -23 -205 -73 -278 l-30 -44 26
17 c57 38 111 179 105 275 -3 42 -1 50 11 46 109 -35 145 -55 158 -87 15 -36
4 -127 -23 -193 -9 -21 -11 -36 -5 -36 5 0 10 7 10 15 0 9 6 18 14 21 28 11
46 156 25 205 -12 29 -68 64 -121 74 -9 2 -25 8 -36 14 -11 6 -22 7 -26 4 -3
-3 -15 2 -25 11 -22 20 -115 73 -143 83 -10 3 -18 9 -18 13 0 5 -8 11 -19 15
-18 6 -147 127 -207 195 -17 20 -35 51 -39 69 -21 97 -62 141 -129 141 -47 0
-92 -25 -139 -75 -17 -19 -35 -35 -38 -35 -9 0 -5 101 5 123 9 20 -17 57 -41
57 -7 0 -13 4 -13 9 0 6 15 7 33 4 23 -3 39 1 57 15 24 19 24 19 52 -1 25 -19
31 -19 68 -7 31 10 43 11 52 2 15 -15 83 -15 110 -1 16 8 31 8 59 -1 30 -10
42 -10 53 -1 11 10 23 10 54 0 36 -10 42 -10 64 10 22 21 23 28 23 166 0 126
-2 145 -19 164 -21 23 -55 28 -73 10 -8 -8 -21 -8 -47 2 -29 10 -40 10 -59 0
-20 -11 -29 -10 -56 4 -33 17 -85 15 -122 -6 -14 -7 -24 -7 -32 0 -7 5 -46 10
-87 10 -41 1 -92 3 -113 5 -20 2 -40 0 -43 -5 -3 -5 -29 -6 -57 -3 -42 5 -56
3 -66 -10 -17 -20 -30 -20 -52 0 -25 22 -65 21 -98 -4 -26 -19 -27 -19 -50 -1
-26 22 -71 25 -89 7 -9 -9 -19 -9 -45 0 -58 21 -109 22 -139 4 -27 -16 -31
-16 -59 1 -37 20 -88 22 -114 3 -15 -11 -25 -11 -49 -1 -17 6 -49 10 -71 8
-22 -3 -62 -4 -89 -4 -27 1 -55 -4 -62 -10 -7 -6 -19 -7 -26 -3 -19 12 -161
14 -175 3 -8 -7 -22 -5 -42 5 -38 20 -64 20 -108 0 -25 -13 -37 -14 -46 -5
-15 15 -49 14 -72 -3 -17 -12 -24 -12 -49 1 -32 16 -54 20 -102 15z m102 -57
c25 -25 26 -30 22 -130 -4 -127 -13 -141 -100 -147 l-58 -5 0 154 0 153 55 0
c47 0 60 -4 81 -25z m114 -131 l0 -155 -26 3 -25 3 -2 153 -2 152 28 0 27 0 0
-156z m162 139 c10 -9 18 -29 18 -45 0 -23 -4 -28 -24 -28 -18 0 -25 6 -28 23
-4 29 -32 28 -36 -2 -3 -17 9 -36 41 -70 53 -54 63 -82 46 -123 -21 -51 -85
-63 -124 -23 -33 33 -34 75 -1 75 17 0 26 -7 30 -25 7 -28 40 -34 50 -9 8 21
-8 48 -45 75 -80 57 -67 169 19 169 20 0 44 -7 54 -17z m108 -139 l0 -155 -25
3 -26 3 -2 153 -2 152 28 0 27 0 0 -156z m115 71 c15 -47 29 -85 32 -85 2 0 2
38 -2 85 l-7 85 31 0 32 0 -3 -152 -3 -153 -25 0 c-22 0 -27 8 -50 82 -14 46
-27 83 -30 83 -3 0 -3 -38 -1 -85 l3 -85 -26 0 -26 0 0 155 0 155 25 0 c22 0
27 -8 50 -85z m245 60 c0 -22 -4 -25 -38 -25 -39 0 -39 0 -37 -37 3 -34 5 -38
31 -38 24 -1 30 -5 32 -28 3 -25 0 -27 -30 -27 l-33 0 0 -62 c0 -61 -1 -63
-27 -66 l-28 -3 0 155 0 156 65 0 c63 0 65 -1 65 -25z m160 5 c18 -18 20 -33
20 -134 0 -112 -1 -115 -26 -135 -36 -28 -79 -27 -109 4 -23 22 -25 31 -25
128 0 90 3 108 21 131 26 33 88 37 119 6z m190 0 c26 -26 28 -120 4 -145 -15
-15 -15 -21 3 -76 11 -32 17 -61 15 -64 -3 -3 -15 -5 -27 -5 -19 0 -25 10 -39
60 -9 33 -21 60 -27 60 -5 0 -9 -27 -9 -60 0 -57 -1 -60 -25 -60 l-25 0 0 155
0 155 55 0 c42 0 60 -5 75 -20z m145 -75 l21 -90 18 80 c24 109 21 105 58 105
l33 0 -2 -152 c-3 -152 -3 -153 -25 -153 -23 0 -23 2 -21 100 3 106 -5 104
-27 -7 -10 -50 -15 -58 -34 -58 -20 0 -24 8 -35 68 -21 107 -30 106 -28 -3 2
-97 1 -100 -20 -103 l-23 -3 0 156 0 156 32 -3 c31 -3 31 -5 53 -93z m298 -43
c33 -171 33 -172 2 -172 -18 0 -25 5 -25 19 0 34 -12 51 -35 51 -18 0 -24 -7
-29 -35 -6 -29 -11 -35 -33 -35 -22 0 -25 3 -20 28 3 15 15 84 28 155 l23 127
31 0 31 0 27 -138z m177 113 c0 -20 -5 -25 -25 -25 l-25 0 0 -131 0 -130 -27
3 -28 3 0 128 0 127 -27 0 c-23 0 -28 4 -28 25 0 25 1 25 80 25 79 0 80 0 80
-25z m80 -131 l0 -155 -27 3 -28 3 -3 153 -3 152 31 0 30 0 0 -156z m170 136
c18 -18 20 -33 20 -129 0 -92 -3 -112 -19 -132 -27 -34 -95 -33 -123 1 -17 22
-19 37 -16 138 3 99 6 116 22 128 29 21 92 18 116 -6z m132 -68 l27 -87 0 88
c1 86 1 87 26 87 l25 0 0 -155 c0 -155 0 -155 -23 -155 -20 0 -26 11 -51 85
-15 47 -30 85 -33 85 -3 0 -3 -37 -2 -82 4 -83 4 -83 -21 -83 l-25 0 -3 153
-3 152 28 0 c26 0 30 -5 55 -88z m-1328 -221 c23 -19 20 -28 -11 -34 -16 -3
-35 -8 -43 -11 -8 -3 -21 -2 -29 3 -11 7 -10 13 3 33 14 22 22 49 26 88 1 8 9
-3 19 -25 10 -22 26 -46 35 -54z m-714 -16 c14 -17 56 -20 65 -5 3 6 13 10 21
10 8 0 14 -4 14 -10 0 -5 -8 -10 -17 -10 -9 0 -27 -10 -39 -21 l-23 -21 -28
20 c-22 15 -33 18 -47 10 -28 -16 -34 2 -7 23 28 23 44 24 61 4z m1254 -1 c4
-9 -4 -28 -19 -45 -15 -19 -27 -49 -31 -79 -13 -102 -52 -101 -61 1 -3 38 -12
72 -22 83 -9 11 -12 21 -6 23 6 2 21 10 35 17 36 20 96 20 104 0z m198 -1 c26
-23 22 -34 -9 -27 -35 8 -47 19 -39 33 10 16 27 14 48 -6z m-1182 -3 c18 -11
13 -16 -27 -25 -34 -7 -42 2 -21 23 14 14 28 15 48 2z m198 -2 c9 -9 8 -16 -5
-30 -19 -21 -34 -23 -51 -6 -9 9 -8 16 5 30 19 21 34 23 51 6z m432 3 c0 -5
-11 -11 -25 -13 -24 -5 -32 2 -18 15 9 10 43 8 43 -2z m100 -1 c8 -5 13 -10
10 -11 -40 -6 -60 -6 -60 1 0 7 15 17 30 19 3 0 12 -4 20 -9z m-420 -10 c8 -5
12 -12 8 -15 -9 -9 -59 6 -52 16 7 12 25 11 44 -1z m500 -10 c-26 -20 -41 -21
-47 -3 -4 12 16 20 52 22 18 0 18 -1 -5 -19z m265 1 c0 -8 -4 -16 -10 -18 -16
-5 -38 14 -30 26 9 16 40 9 40 -8z m-1495 -131 c0 -93 -1 -100 -20 -100 -19 0
-20 7 -20 100 0 93 1 100 20 100 19 0 20 -7 20 -100z m81 40 l17 -55 1 58 c1
47 4 57 19 57 15 0 17 -10 14 -101 -3 -87 -6 -100 -20 -97 -10 2 -23 24 -34
58 l-17 55 0 -57 c-1 -45 -4 -58 -16 -58 -12 0 -15 18 -15 101 0 89 2 100 17
97 11 -2 23 -23 34 -58z m229 45 c0 -9 -9 -15 -21 -15 -20 0 -21 -4 -18 -85 4
-76 2 -85 -13 -85 -16 0 -18 11 -18 85 0 78 -2 85 -20 85 -11 0 -20 7 -20 15
0 12 13 15 55 15 42 0 55 -3 55 -15z m50 -25 c0 -33 3 -40 19 -40 16 0 18 5
14 40 -5 36 -3 40 16 40 20 0 21 -5 21 -100 0 -95 -1 -100 -21 -100 -20 0 -21
4 -17 45 5 39 3 45 -13 45 -16 0 -19 -8 -19 -45 0 -38 -3 -45 -20 -45 -19 0
-20 6 -18 100 3 88 5 100 21 100 13 0 17 -9 17 -40z m188 23 c-2 -13 -11 -17
-31 -15 -23 3 -27 0 -27 -22 0 -21 5 -26 25 -26 16 0 25 -6 25 -15 0 -9 -9
-15 -25 -15 -21 0 -25 -5 -25 -31 0 -27 3 -30 27 -27 20 2 29 -2 31 -14 3 -15
-4 -18 -42 -18 l-46 0 0 100 0 100 46 0 c38 0 45 -3 42 -17z m160 5 c7 -7 12
-43 12 -90 0 -86 -9 -98 -69 -98 l-31 0 0 100 0 100 38 0 c21 0 43 -5 50 -12z
m77 -88 c0 -89 -2 -100 -17 -100 -16 0 -18 11 -18 100 0 89 2 100 18 100 15 0
17 -11 17 -100z m113 88 c17 -17 15 -58 -2 -58 -7 0 -16 9 -19 21 -3 12 -12
19 -19 17 -20 -7 -18 -133 2 -133 8 0 16 10 18 23 2 12 -1 22 -7 22 -6 0 -11
7 -11 15 0 9 9 15 25 15 23 0 25 -4 25 -43 0 -49 -13 -67 -50 -67 -41 0 -50
17 -50 100 0 83 9 100 50 100 14 0 31 -5 38 -12z m72 -88 c0 -82 -3 -100 -15
-100 -12 0 -15 18 -15 100 0 82 3 100 15 100 12 0 15 -18 15 -100z m130 85 c0
-8 -9 -15 -20 -15 -18 0 -20 -7 -20 -85 0 -79 -1 -85 -21 -85 -19 0 -20 5 -18
83 2 69 0 82 -14 85 -10 2 -17 10 -17 18 0 10 14 14 55 14 42 0 55 -3 55 -15z
m76 -22 c3 -21 12 -66 18 -100 12 -59 11 -63 -6 -63 -11 0 -18 7 -18 20 0 13
-7 20 -20 20 -13 0 -20 -7 -20 -20 0 -14 -7 -20 -21 -20 -19 0 -21 4 -15 33 4
17 12 62 18 100 11 59 15 67 35 67 18 0 23 -7 29 -37z m84 -49 c0 -82 1 -85
22 -82 15 2 24 -3 26 -14 3 -15 -4 -18 -42 -18 l-46 0 0 100 c0 93 1 100 20
100 18 0 20 -7 20 -86z m198 19 c6 -38 14 -83 18 -100 6 -29 4 -33 -15 -33
-14 0 -21 6 -21 20 0 12 -7 20 -16 20 -9 0 -18 -9 -21 -20 -6 -22 -33 -28 -33
-7 0 6 7 51 16 100 14 78 18 87 38 87 19 0 23 -8 34 -67z m134 42 c8 -18 8
-29 1 -36 -14 -14 -33 -3 -33 17 0 8 -7 14 -15 14 -13 0 -15 -12 -13 -67 2
-46 7 -68 17 -71 11 -4 13 4 7 37 -6 39 -5 41 19 41 22 0 25 -4 25 -36 0 -51
-15 -74 -49 -74 -40 0 -53 20 -58 93 -7 82 5 107 53 107 27 0 37 -5 46 -25z
m116 8 c-2 -12 -11 -17 -26 -15 -18 3 -22 -2 -22 -22 0 -19 5 -26 20 -26 11 0
20 -7 20 -15 0 -8 -9 -15 -20 -15 -16 0 -20 -7 -20 -31 0 -28 2 -31 25 -25 20
5 25 3 25 -14 0 -17 -7 -20 -45 -20 l-45 0 0 100 0 100 46 0 c38 0 45 -3 42
-17z m-1128 -44 c0 -11 -4 -17 -10 -14 -5 3 -10 13 -10 21 0 8 5 14 10 14 6 0
10 -9 10 -21z m1390 -27 c51 -52 63 -157 36 -322 -45 -275 -192 -571 -318
-636 -37 -19 -88 -17 -114 4 -47 37 -59 79 -58 197 3 216 100 498 233 678 79
107 163 137 221 79z m-1388 -55 c-3 -13 -8 -15 -17 -7 -10 8 -10 16 -1 35 9
20 12 21 17 7 3 -9 4 -25 1 -35z"/>
<path d="M290 1595 c0 -105 0 -106 23 -103 21 3 22 7 22 103 0 96 -1 100 -22
103 -23 3 -23 2 -23 -103z"/>
<path d="M1200 1595 c0 -105 0 -106 23 -103 21 3 22 7 22 103 0 96 -1 100 -22
103 -23 3 -23 2 -23 -103z"/>
<path d="M1390 1651 c0 -37 4 -51 14 -51 23 0 38 27 34 62 -2 25 -8 34 -25 36
-21 3 -23 0 -23 -47z"/>
<path d="M1846 1623 c-10 -61 -8 -73 13 -73 17 0 17 5 9 53 -5 28 -11 53 -13
55 -1 1 -5 -14 -9 -35z"/>
<path d="M2256 1685 c-9 -25 -7 -168 3 -183 5 -8 17 -12 27 -10 17 3 19 13 19
103 0 94 -1 100 -21 103 -13 2 -24 -4 -28 -13z"/>
<path d="M939 1336 c0 -3 0 -34 -1 -68 0 -47 3 -63 13 -63 19 0 20 126 2 133
-7 2 -13 1 -14 -2z"/>
<path d="M1418 1278 c-3 -27 0 -38 9 -38 14 0 16 24 4 55 -7 16 -9 13 -13 -17z"/>
<path d="M1697 1281 c-7 -35 -5 -46 10 -40 4 2 6 20 3 39 l-6 35 -7 -34z"/>
<path d="M2109 1247 c-161 -108 -334 -611 -278 -810 24 -89 81 -101 155 -33
89 79 195 306 235 501 20 96 25 267 10 308 -23 60 -66 72 -122 34z m71 -7 c10
-5 23 -24 29 -41 12 -35 13 -148 3 -219 l-7 -45 -75 -1 c-41 0 -83 -4 -93 -8
-24 -11 -65 -103 -73 -165 -8 -60 5 -81 47 -81 24 0 34 8 59 54 27 47 33 53
56 48 24 -4 26 -7 20 -46 -9 -56 -108 -253 -152 -299 -20 -21 -49 -43 -66 -49
-26 -9 -33 -8 -54 14 -43 42 -47 194 -9 353 2 11 7 34 11 50 4 17 10 35 14 40
4 6 13 28 20 50 16 51 83 186 112 228 27 39 117 127 130 127 5 0 18 -4 28 -10z
m-90 -331 c28 -51 -42 -219 -90 -219 -51 0 -23 151 40 218 26 27 36 28 50 1z
m111 -9 c4 0 -1 -25 -10 -56 -15 -54 -17 -55 -46 -49 -40 7 -42 12 -37 71 l4
51 41 -8 c23 -5 45 -8 48 -9z"/>
<path d="M2020 838 c-21 -46 -26 -98 -10 -98 14 0 38 52 46 99 9 55 -11 54
-36 -1z"/>
<path d="M1361 1097 c3 -4 51 -26 107 -51 l102 -44 0 29 c0 26 -2 28 -19 19
-15 -7 -31 -5 -68 11 -26 11 -55 22 -63 25 -8 2 -26 6 -40 10 -14 4 -23 4 -19
1z"/>
<path d="M1360 1065 c0 -8 80 -81 115 -105 113 -77 128 -83 139 -54 7 18 47
13 94 -12 15 -8 36 -14 47 -13 17 0 -117 77 -137 79 -5 0 -8 -11 -8 -24 0 -41
-17 -39 -82 12 -101 78 -168 124 -168 117z"/>
<path d="M1584 1062 c8 -14 193 -162 201 -162 14 0 -28 41 -108 106 -71 57
-108 79 -93 56z"/>
<path d="M1480 793 c0 -5 52 -15 116 -22 116 -13 164 -10 82 5 -121 21 -198
28 -198 17z"/>
<path d="M1452 757 c-6 -7 -45 -19 -87 -26 -107 -19 -84 -27 35 -12 93 12 99
14 89 32 -11 22 -22 24 -37 6z"/>
<path d="M1628 726 l-66 -11 16 -30 16 -30 6 25 c5 20 14 26 45 31 49 7 101
28 70 27 -11 0 -50 -5 -87 -12z"/>
<path d="M2325 696 c55 -28 65 -30 65 -18 0 8 -23 17 -99 38 -9 3 7 -6 34 -20z"/>
<path d="M1290 681 c16 -9 229 -41 270 -41 57 1 -10 19 -130 34 -146 19 -162
19 -140 7z"/>
<path d="M2435 660 c22 -11 49 -19 60 -19 13 0 7 5 -15 13 -62 23 -86 26 -45
6z"/>
<path d="M2526 632 c8 -8 43 -19 114 -38 44 -11 17 3 -45 25 -63 22 -85 26
-69 13z"/>
<path d="M2825 530 c3 -5 18 -10 33 -9 24 0 25 1 7 9 -28 12 -47 12 -40 0z"/>
<path d="M2873 448 c-18 -24 -24 -38 -16 -38 4 0 13 11 20 25 12 27 11 32 -4
13z"/>
<path d="M2469 352 c-31 -37 -64 -84 -74 -105 -10 -22 -26 -44 -37 -50 -10 -7
-18 -20 -18 -31 0 -22 36 -56 59 -56 13 1 12 3 -4 15 -48 35 -49 35 -11 70 20
18 36 39 36 47 0 7 18 36 41 63 40 48 74 104 67 110 -2 2 -28 -27 -59 -63z"/>
<path d="M2503 277 c-25 -27 -46 -67 -40 -74 3 -2 19 16 37 42 34 50 36 69 3
32z"/>
<path d="M2530 170 c-31 -62 -34 -85 -3 -27 25 46 43 87 38 87 -3 0 -18 -27
-35 -60z"/>
</g>
</svg>
